<svg width="256" height="256" viewBox="0 0 256 256" fill="none" xmlns="http://www.w3.org/2000/svg">
  <defs>
    <linearGradient id="bg" x1="40" y1="24" x2="216" y2="232" gradientUnits="userSpaceOnUse">
      <stop stop-color="#7DD3FC"/>
      <stop offset="1" stop-color="#60A5FA"/>
    </linearGradient>
  </defs>
  <rect x="16" y="16" width="224" height="224" rx="56" fill="#0F172A"/>
  <path d="M78 78L52 42L46 104L78 92V78Z" fill="#CBD5E1"/>
  <path d="M178 78L204 42L210 104L178 92V78Z" fill="#CBD5E1"/>
  <path d="M128 54C88.2355 54 56 86.2355 56 126V144C56 184.869 89.1309 218 130 218C170.869 218 204 184.869 204 144V126C204 86.2355 171.765 54 132 54H128Z" fill="#E2E8F0"/>
  <path d="M128 72C99.2812 72 76 95.2812 76 124V144C76 173.823 100.177 198 130 198C159.823 198 184 173.823 184 144V124C184 95.2812 160.719 72 132 72H128Z" fill="#94A3B8"/>
  <path d="M128 90C106.461 90 89 107.461 89 129V145C89 168.748 108.252 188 132 188C155.748 188 175 168.748 175 145V129C175 107.461 157.539 90 136 90H128Z" fill="#F8FAFC"/>
  <path d="M104 126C97.3726 126 92 120.627 92 114C92 107.373 97.3726 102 104 102C110.627 102 116 107.373 116 114C116 120.627 110.627 126 104 126Z" fill="#0F172A"/>
  <path d="M152 126C145.373 126 140 120.627 140 114C140 107.373 145.373 102 152 102C158.627 102 164 107.373 164 114C164 120.627 158.627 126 152 126Z" fill="#0F172A"/>
  <path d="M129 126L109 156C119 162 140 162 149 156L129 126Z" fill="#111827"/>
  <path d="M128 140C115 140 103.5 145 96 153C101.5 164.5 115 172 128 172C141.5 172 154.5 164.5 160 153C152.5 145 141 140 128 140Z" fill="url(#bg)"/>
  <path d="M112 176C116.5 182 122 186 128 186C134 186 139.5 182 144 176" stroke="#0F172A" stroke-width="6" stroke-linecap="round"/>
  <circle cx="106" cy="136" r="5" fill="#FCA5A5"/>
  <circle cx="150" cy="136" r="5" fill="#FCA5A5"/>
</svg>
